<svg version="1.0" preserveAspectRatio="xMidYMid meet" viewBox="79.5 152.24999634600002 213.74999999999997 76.499998164" zoomAndPan="magnify" xmlns:xlink="http://www.w3.org/1999/xlink" xmlns="http://www.w3.org/2000/svg" style="max-height: 500px" width="213.74999999999997" height="76.499998164"><defs><g/></defs><g fill-opacity="1" fill="#34495e"><g transform="translate(83.628728, 210.225433)"><g><path d="M 17.453125 0.71875 C 15.398438 0.71875 13.226562 0.5 10.9375 0.0625 C 8.644531 -0.363281 6.597656 -1.097656 4.796875 -2.140625 C 4.023438 -2.617188 3.484375 -3.179688 3.171875 -3.828125 C 2.867188 -4.472656 2.753906 -5.113281 2.828125 -5.75 C 2.898438 -6.394531 3.132812 -6.957031 3.53125 -7.4375 C 3.9375 -7.914062 4.460938 -8.222656 5.109375 -8.359375 C 5.753906 -8.503906 6.457031 -8.390625 7.21875 -8.015625 C 9.125 -7.109375 10.910156 -6.472656 12.578125 -6.109375 C 14.253906 -5.753906 15.898438 -5.578125 17.515625 -5.578125 C 19.804688 -5.578125 21.507812 -5.96875 22.625 -6.75 C 23.75 -7.539062 24.3125 -8.578125 24.3125 -9.859375 C 24.3125 -10.960938 23.941406 -11.8125 23.203125 -12.40625 C 22.460938 -13 21.351562 -13.441406 19.875 -13.734375 L 12.734375 -15.09375 C 9.773438 -15.65625 7.519531 -16.734375 5.96875 -18.328125 C 4.414062 -19.929688 3.640625 -22 3.640625 -24.53125 C 3.640625 -26.8125 4.269531 -28.785156 5.53125 -30.453125 C 6.800781 -32.128906 8.554688 -33.414062 10.796875 -34.3125 C 13.035156 -35.21875 15.609375 -35.671875 18.515625 -35.671875 C 20.617188 -35.671875 22.585938 -35.441406 24.421875 -34.984375 C 26.253906 -34.535156 28.03125 -33.835938 29.75 -32.890625 C 30.457031 -32.503906 30.941406 -32 31.203125 -31.375 C 31.472656 -30.757812 31.535156 -30.128906 31.390625 -29.484375 C 31.242188 -28.847656 30.957031 -28.28125 30.53125 -27.78125 C 30.101562 -27.28125 29.566406 -26.96875 28.921875 -26.84375 C 28.273438 -26.726562 27.546875 -26.859375 26.734375 -27.234375 C 25.265625 -28.003906 23.847656 -28.554688 22.484375 -28.890625 C 21.128906 -29.222656 19.832031 -29.390625 18.59375 -29.390625 C 16.257812 -29.390625 14.53125 -28.984375 13.40625 -28.171875 C 12.28125 -27.359375 11.71875 -26.285156 11.71875 -24.953125 C 11.71875 -23.953125 12.050781 -23.117188 12.71875 -22.453125 C 13.394531 -21.785156 14.421875 -21.332031 15.796875 -21.09375 L 22.953125 -19.734375 C 26.046875 -19.160156 28.390625 -18.109375 29.984375 -16.578125 C 31.585938 -15.054688 32.390625 -13.007812 32.390625 -10.4375 C 32.390625 -6.957031 31.03125 -4.226562 28.3125 -2.25 C 25.59375 -0.269531 21.972656 0.71875 17.453125 0.71875 Z M 17.453125 0.71875"/></g></g></g><g fill-opacity="1" fill="#34495e"><g transform="translate(118.510305, 210.225433)"><g><path d="M 20.65625 0.71875 C 17.5625 0.71875 14.976562 0.191406 12.90625 -0.859375 C 10.832031 -1.910156 9.296875 -3.445312 8.296875 -5.46875 C 7.296875 -7.5 6.796875 -10.015625 6.796875 -13.015625 L 6.796875 -28.25 L 3.078125 -28.25 C 1.929688 -28.25 1.046875 -28.546875 0.421875 -29.140625 C -0.191406 -29.734375 -0.5 -30.554688 -0.5 -31.609375 C -0.5 -32.703125 -0.191406 -33.535156 0.421875 -34.109375 C 1.046875 -34.679688 1.929688 -34.96875 3.078125 -34.96875 L 6.796875 -34.96875 L 6.796875 -41.46875 C 6.796875 -42.945312 7.1875 -44.066406 7.96875 -44.828125 C 8.757812 -45.585938 9.867188 -45.96875 11.296875 -45.96875 C 12.722656 -45.96875 13.816406 -45.585938 14.578125 -44.828125 C 15.347656 -44.066406 15.734375 -42.945312 15.734375 -41.46875 L 15.734375 -34.96875 L 23.3125 -34.96875 C 24.457031 -34.96875 25.335938 -34.679688 25.953125 -34.109375 C 26.578125 -33.535156 26.890625 -32.703125 26.890625 -31.609375 C 26.890625 -30.554688 26.578125 -29.734375 25.953125 -29.140625 C 25.335938 -28.546875 24.457031 -28.25 23.3125 -28.25 L 15.734375 -28.25 L 15.734375 -13.515625 C 15.734375 -11.222656 16.234375 -9.503906 17.234375 -8.359375 C 18.234375 -7.222656 19.851562 -6.65625 22.09375 -6.65625 C 22.90625 -6.65625 23.617188 -6.722656 24.234375 -6.859375 C 24.859375 -7.003906 25.410156 -7.101562 25.890625 -7.15625 C 26.453125 -7.195312 26.925781 -7.015625 27.3125 -6.609375 C 27.695312 -6.203125 27.890625 -5.378906 27.890625 -4.140625 C 27.890625 -3.191406 27.734375 -2.347656 27.421875 -1.609375 C 27.109375 -0.867188 26.546875 -0.359375 25.734375 -0.078125 C 25.117188 0.117188 24.3125 0.300781 23.3125 0.46875 C 22.3125 0.632812 21.425781 0.71875 20.65625 0.71875 Z M 20.65625 0.71875"/></g></g></g><g fill-opacity="1" fill="#34495e"><g transform="translate(145.958104, 210.225433)"><g><path d="M 17.296875 0.71875 C 14.390625 0.71875 11.984375 0.179688 10.078125 -0.890625 C 8.171875 -1.960938 6.753906 -3.570312 5.828125 -5.71875 C 4.898438 -7.863281 4.4375 -10.535156 4.4375 -13.734375 L 4.4375 -31.03125 C 4.4375 -32.550781 4.816406 -33.679688 5.578125 -34.421875 C 6.335938 -35.160156 7.429688 -35.53125 8.859375 -35.53125 C 10.296875 -35.53125 11.40625 -35.160156 12.1875 -34.421875 C 12.976562 -33.679688 13.375 -32.550781 13.375 -31.03125 L 13.375 -13.578125 C 13.375 -11.097656 13.875 -9.265625 14.875 -8.078125 C 15.875 -6.890625 17.46875 -6.296875 19.65625 -6.296875 C 22.039062 -6.296875 23.992188 -7.113281 25.515625 -8.75 C 27.046875 -10.394531 27.8125 -12.578125 27.8125 -15.296875 L 27.8125 -31.03125 C 27.8125 -32.550781 28.191406 -33.679688 28.953125 -34.421875 C 29.710938 -35.160156 30.8125 -35.53125 32.25 -35.53125 C 33.675781 -35.53125 34.78125 -35.160156 35.5625 -34.421875 C 36.351562 -33.679688 36.75 -32.550781 36.75 -31.03125 L 36.75 -4 C 36.75 -0.945312 35.296875 0.578125 32.390625 0.578125 C 31.003906 0.578125 29.929688 0.1875 29.171875 -0.59375 C 28.410156 -1.382812 28.03125 -2.519531 28.03125 -4 L 28.03125 -9.4375 L 29.03125 -7.296875 C 28.03125 -4.722656 26.515625 -2.742188 24.484375 -1.359375 C 22.460938 0.0234375 20.066406 0.71875 17.296875 0.71875 Z M 17.296875 0.71875"/></g></g></g><g fill-opacity="1" fill="#34495e"><g transform="translate(187.34424, 210.225433)"><g><path d="M 18.09375 0.71875 C 15.039062 0.71875 12.359375 -0.0195312 10.046875 -1.5 C 7.734375 -2.976562 5.929688 -5.085938 4.640625 -7.828125 C 3.359375 -10.566406 2.71875 -13.796875 2.71875 -17.515625 C 2.71875 -21.285156 3.359375 -24.515625 4.640625 -27.203125 C 5.929688 -29.898438 7.734375 -31.984375 10.046875 -33.453125 C 12.359375 -34.929688 15.039062 -35.671875 18.09375 -35.671875 C 21 -35.671875 23.535156 -34.957031 25.703125 -33.53125 C 27.867188 -32.101562 29.332031 -30.222656 30.09375 -27.890625 L 29.3125 -27.890625 L 29.3125 -46.46875 C 29.3125 -47.945312 29.691406 -49.066406 30.453125 -49.828125 C 31.222656 -50.597656 32.320312 -50.984375 33.75 -50.984375 C 35.175781 -50.984375 36.28125 -50.597656 37.0625 -49.828125 C 37.851562 -49.066406 38.25 -47.945312 38.25 -46.46875 L 38.25 -4 C 38.25 -2.519531 37.867188 -1.382812 37.109375 -0.59375 C 36.347656 0.1875 35.25 0.578125 33.8125 0.578125 C 32.382812 0.578125 31.289062 0.1875 30.53125 -0.59375 C 29.769531 -1.382812 29.390625 -2.519531 29.390625 -4 L 29.390625 -9.578125 L 30.171875 -7.4375 C 29.453125 -4.957031 27.992188 -2.976562 25.796875 -1.5 C 23.609375 -0.0195312 21.039062 0.71875 18.09375 0.71875 Z M 20.59375 -6.078125 C 22.351562 -6.078125 23.898438 -6.503906 25.234375 -7.359375 C 26.566406 -8.222656 27.601562 -9.5 28.34375 -11.1875 C 29.082031 -12.882812 29.453125 -14.992188 29.453125 -17.515625 C 29.453125 -21.328125 28.640625 -24.175781 27.015625 -26.0625 C 25.398438 -27.945312 23.257812 -28.890625 20.59375 -28.890625 C 18.832031 -28.890625 17.28125 -28.472656 15.9375 -27.640625 C 14.601562 -26.804688 13.566406 -25.539062 12.828125 -23.84375 C 12.085938 -22.15625 11.71875 -20.046875 11.71875 -17.515625 C 11.71875 -13.753906 12.53125 -10.90625 14.15625 -8.96875 C 15.78125 -7.039062 17.925781 -6.078125 20.59375 -6.078125 Z M 20.59375 -6.078125"/></g></g></g><g fill-opacity="1" fill="#34495e"><g transform="translate(230.231426, 210.225433)"><g><path d="M 9.078125 0.5 C 7.648438 0.5 6.550781 0.0703125 5.78125 -0.78125 C 5.019531 -1.644531 4.640625 -2.835938 4.640625 -4.359375 L 4.640625 -30.609375 C 4.640625 -32.179688 5.019531 -33.382812 5.78125 -34.21875 C 6.550781 -35.050781 7.648438 -35.46875 9.078125 -35.46875 C 10.503906 -35.46875 11.609375 -35.050781 12.390625 -34.21875 C 13.179688 -33.382812 13.578125 -32.179688 13.578125 -30.609375 L 13.578125 -4.359375 C 13.578125 -2.835938 13.195312 -1.644531 12.4375 -0.78125 C 11.675781 0.0703125 10.554688 0.5 9.078125 0.5 Z M 9.078125 -42.109375 C 7.410156 -42.109375 6.113281 -42.523438 5.1875 -43.359375 C 4.257812 -44.191406 3.796875 -45.347656 3.796875 -46.828125 C 3.796875 -48.359375 4.257812 -49.523438 5.1875 -50.328125 C 6.113281 -51.140625 7.410156 -51.546875 9.078125 -51.546875 C 10.796875 -51.546875 12.109375 -51.140625 13.015625 -50.328125 C 13.921875 -49.523438 14.375 -48.359375 14.375 -46.828125 C 14.375 -45.347656 13.921875 -44.191406 13.015625 -43.359375 C 12.109375 -42.523438 10.796875 -42.109375 9.078125 -42.109375 Z M 9.078125 -42.109375"/></g></g></g><g fill-opacity="1" fill="#34495e"><g transform="translate(248.458474, 210.225433)"><g><path d="M 33.75 13.4375 C 32.320312 13.4375 31.222656 13.054688 30.453125 12.296875 C 29.691406 11.535156 29.3125 10.414062 29.3125 8.9375 L 29.3125 -7.15625 L 30.09375 -7.15625 C 29.332031 -4.8125 27.867188 -2.910156 25.703125 -1.453125 C 23.535156 -0.00390625 21 0.71875 18.09375 0.71875 C 15.039062 0.71875 12.359375 -0.0195312 10.046875 -1.5 C 7.734375 -2.976562 5.929688 -5.085938 4.640625 -7.828125 C 3.359375 -10.566406 2.71875 -13.796875 2.71875 -17.515625 C 2.71875 -21.285156 3.359375 -24.515625 4.640625 -27.203125 C 5.929688 -29.898438 7.734375 -31.984375 10.046875 -33.453125 C 12.359375 -34.929688 15.039062 -35.671875 18.09375 -35.671875 C 21.039062 -35.671875 23.609375 -34.929688 25.796875 -33.453125 C 27.992188 -31.984375 29.453125 -30.03125 30.171875 -27.59375 L 29.390625 -25.453125 L 29.390625 -31.03125 C 29.390625 -32.507812 29.769531 -33.628906 30.53125 -34.390625 C 31.289062 -35.148438 32.382812 -35.53125 33.8125 -35.53125 C 35.25 -35.53125 36.347656 -35.148438 37.109375 -34.390625 C 37.867188 -33.628906 38.25 -32.507812 38.25 -31.03125 L 38.25 8.9375 C 38.25 10.414062 37.851562 11.535156 37.0625 12.296875 C 36.28125 13.054688 35.175781 13.4375 33.75 13.4375 Z M 20.59375 -6.078125 C 22.351562 -6.078125 23.898438 -6.503906 25.234375 -7.359375 C 26.566406 -8.222656 27.601562 -9.5 28.34375 -11.1875 C 29.082031 -12.882812 29.453125 -14.992188 29.453125 -17.515625 C 29.453125 -21.328125 28.640625 -24.175781 27.015625 -26.0625 C 25.398438 -27.945312 23.257812 -28.890625 20.59375 -28.890625 C 18.832031 -28.890625 17.28125 -28.472656 15.9375 -27.640625 C 14.601562 -26.804688 13.566406 -25.539062 12.828125 -23.84375 C 12.085938 -22.15625 11.71875 -20.046875 11.71875 -17.515625 C 11.71875 -13.753906 12.53125 -10.90625 14.15625 -8.96875 C 15.78125 -7.039062 17.925781 -6.078125 20.59375 -6.078125 Z M 20.59375 -6.078125"/></g></g></g></svg>